<!DOCTYPE svg PUBLIC "-//W3C//DTD SVG 1.1//EN" "http://www.w3.org/Graphics/SVG/1.1/DTD/svg11.dtd">
<!-- Uploaded to: SVG Repo, www.svgrepo.com, Transformed by: SVG Repo Mixer Tools -->
<svg fill="#000000" version="1.1" id="Layer_1" xmlns="http://www.w3.org/2000/svg" xmlns:xlink="http://www.w3.org/1999/xlink" viewBox="0 0 512 512" xml:space="preserve" width="800px" height="800px">
<g id="SVGRepo_bgCarrier" stroke-width="0"/>
<g id="SVGRepo_tracerCarrier" stroke-linecap="round" stroke-linejoin="round"/>
<g id="SVGRepo_iconCarrier"> <g> <g> <path d="M145.083,359.758v151.181h302.632V359.758H145.083z M406.681,375.432l-110.282,55.141l-110.283-55.141H406.681z M432.04,495.266H160.757V380.275l135.642,67.821l135.641-67.821V495.266z"/> </g> </g> <g> <g> <path d="M184.947,200.433v15.674c21.943,0,39.918,18.202,39.918,40.575s-18.003,40.576-40.061,40.576H65.238 c-22.273,0-39.722,17.211-39.722,39.184c0,21.972,17.448,39.184,39.722,39.184h31.937v-15.673H65.238 c-13.484,0-24.048-10.327-24.048-23.51s10.563-23.51,24.048-23.51h119.567c30.7,0,55.735-25.233,55.735-56.249 C240.54,225.667,215.249,200.433,184.947,200.433z"/> </g> </g> <g> <g> <path d="M200.847,258.597c0,8.359-7.197,15.673-16.043,15.673H73.143v15.673h111.661c17.488,0,31.717-14.629,31.717-31.347 H200.847z"/> </g> </g> <g> <g> <rect x="104.49" y="359.957" width="33.437" height="15.673"/> </g> </g> <g> <g> <rect y="310.847" width="15.673" height="16.718"/> </g> </g> <g> <g> <path d="M64.193,385.029c-26.358,0-47.8-21.943-47.8-48.065H0.72c0,35.526,28.474,63.739,63.473,63.739h16.264v-15.673H64.193z"/> </g> </g> <g> <g> <rect x="89.861" y="385.034" width="22.988" height="15.673"/> </g> </g> <g> <g> <rect x="64.784" y="410.112" width="63.739" height="15.673"/> </g> </g> <g> <g> <rect x="97.176" y="433.1" width="24.033" height="15.673"/> </g> </g> <g> <g> <path d="M65.372,1.061v151.181h302.632V1.061H65.372z M326.971,16.734L216.688,71.875L106.406,16.734H326.971z M352.33,136.568 H81.045V21.577l135.641,67.821L352.33,21.577V136.568z"/> </g> </g> <g> <g> <path d="M447.849,139.478h-30.934v15.673h30.934c13.484,0,24.047,10.327,24.047,23.51s-10.562,23.51-24.047,23.51H328.283 c-30.561,0-55.233,24.885-55.233,55.473c0,30.587,24.746,55.474,56.093,55.474v-15.673c-22.988,0-40.42-17.854-40.42-39.799 s17.64-39.799,39.56-39.799H447.85c22.273,0,39.721-17.212,39.721-39.184S470.123,139.478,447.849,139.478z"/> </g> </g> <g> <g> <path d="M328.283,225.16c-17.5,0-31.738,14.629-31.738,31.347h15.673c0-8.359,7.206-15.673,16.064-15.673h111.619V225.16H328.283z "/> </g> </g> <g> <g> <rect x="375.118" y="139.483" width="34.482" height="15.673"/> </g> </g> <g> <g> <rect x="496.327" y="184.414" width="15.673" height="16.718"/> </g> </g> <g> <g> <path d="M447.849,113.356h-15.261v15.673h15.261c26.633,0,48.301,21.943,48.301,48.065h15.673 C511.823,141.568,483.124,113.356,447.849,113.356z"/> </g> </g> <g> <g> <rect x="400.196" y="113.351" width="24.033" height="15.673"/> </g> </g> <g> <g> <rect x="384.522" y="89.318" width="63.739" height="15.673"/> </g> </g> <g> <g> <rect x="391.837" y="65.285" width="25.078" height="15.673"/> </g> </g> </g>
</svg>